<svg width="90" height="28" viewBox="0 0 90 28" fill="none" xmlns="http://www.w3.org/2000/svg">
<path d="M32.3083 6.40249L35.6735 15.4856C36.0237 16.5012 36.4057 17.7142 36.6572 18.6311H36.7209C37.0074 17.7078 37.3258 16.533 37.7078 15.4219L40.7547 6.40249H43.7091L39.5162 17.3608C37.5168 22.633 36.151 25.32 34.244 26.9851C33.9956 27.2029 33.7363 27.408 33.4672 27.5995C33.1843 27.7995 32.8579 27.9293 32.5149 27.9782C32.172 28.0271 31.8223 27.9937 31.4948 27.8808C31.1673 27.7679 30.8713 27.5787 30.6314 27.3289C30.3914 27.079 30.2143 26.7757 30.1147 26.4439C31.0098 26.1496 31.8399 25.6859 32.5598 25.0781C33.5753 24.237 34.3808 23.1709 34.9126 21.9644C35.0253 21.7576 35.0997 21.5322 35.1322 21.299C35.1085 21.0466 35.0451 20.7994 34.9444 20.5668L29.2583 6.40249H32.3083Z" fill="#73A9D5"/>
<path d="M71.9706 21.7733C71.4908 21.7733 71.0277 21.5968 70.6696 21.2774C70.3114 20.9581 70.0833 20.5181 70.0286 20.0414L70.0031 19.8376H69.9108C69.3645 20.5643 68.6532 21.1506 67.8355 21.5481C67.0179 21.9456 66.1174 22.1428 65.2085 22.1235C62.0948 22.1235 60.5061 19.9331 60.5061 17.7077C60.5061 13.9924 63.8108 11.9771 69.7389 11.993V11.6746C69.7389 10.4011 69.3887 8.11525 66.2368 8.11525C64.8225 8.11955 63.4371 8.51632 62.2349 9.26138C62.1402 8.98675 62.102 8.69583 62.1224 8.40606C62.1429 8.11629 62.2216 7.83362 62.3539 7.575C62.4862 7.31637 62.6693 7.08711 62.8923 6.90095C63.1153 6.71478 63.3736 6.57554 63.6516 6.49157C64.6244 6.1991 65.6349 6.05107 66.6507 6.05222C71.3498 6.05222 72.496 9.26138 72.496 12.34V18.093C72.4761 19.3257 72.5602 20.5579 72.7475 21.7765L71.9706 21.7733ZM69.8153 13.9287C66.7653 13.865 63.3014 14.4062 63.3014 17.3925C63.3014 19.2009 64.5081 20.0605 65.9375 20.0605C66.7505 20.0833 67.5494 19.8461 68.2182 19.3835C68.887 18.9208 69.3908 18.2568 69.6561 17.4881C69.7551 17.201 69.8089 16.9002 69.8153 16.5966V13.9287Z" fill="#5CC19E"/>
<path d="M77.7746 6.40249L81.1429 15.4856C81.4931 16.5012 81.872 17.7142 82.1267 18.6311H82.1903C82.4769 17.7078 82.7952 16.533 83.1773 15.4219L86.2241 6.40249H89.1786L84.9952 17.3608C82.9958 22.633 81.63 25.32 79.723 26.9851C79.4746 27.2029 79.2153 27.408 78.9462 27.5995C78.6633 27.7995 78.3369 27.9293 77.9939 27.9782C77.651 28.0271 77.3013 27.9937 76.9738 27.8808C76.6463 27.7679 76.3503 27.5787 76.1103 27.3289C75.8704 27.079 75.6933 26.7757 75.5937 26.4439C76.4888 26.1496 77.3189 25.6859 78.0388 25.0781C79.0542 24.237 79.8598 23.1709 80.3916 21.9644C80.5028 21.757 80.5772 21.5319 80.6112 21.299C80.586 21.0465 80.5215 20.7994 80.4202 20.5668L74.7373 6.40249H77.7746Z" fill="#5CC19E"/>
<path d="M2.60733 5.12894C2.9257 3.76631 4.6449 2.28908 7.27463 2.28908C7.98721 2.28783 8.69722 2.37444 9.38861 2.54696C9.94645 2.68373 10.5353 2.60579 11.0384 2.32861C11.5414 2.05143 11.9219 1.59526 12.1043 1.05062C11.1492 0.509392 9.55734 0 7.37014 0C3.20905 0 0.445602 2.4801 0.445602 5.81343C0.447512 6.0851 0.467722 6.35633 0.506093 6.62527L2.60733 5.12894Z" fill="#73A9D5"/>
<path d="M7.4976 9.62428C5.78796 8.96207 4.40305 8.37945 3.53709 7.61855L0.67176 7.40205C1.3085 9.49693 3.26647 10.8755 6.09996 11.8815C8.99076 12.9926 11.0856 14.2279 11.0856 16.2304C11.0856 18.389 8.48137 19.7898 5.65424 19.7898C4.64787 19.7836 3.64873 19.6192 2.69341 19.3027C2.42426 19.2152 2.14035 19.1823 1.85832 19.2059C1.57628 19.2295 1.3018 19.3092 1.05095 19.4402C0.800104 19.5713 0.577935 19.7511 0.397471 19.9691C0.217008 20.1871 0.0818806 20.439 0 20.7099C1.14613 21.474 3.40018 22.0757 5.46322 22.0757C10.5157 22.0757 12.9608 19.2104 12.9608 15.9153C12.9608 12.7698 11.1175 11.0219 7.4976 9.62428Z" fill="#73A9D5"/>
<path d="M4.9855 5.28168C5.31079 5.28168 5.57449 5.01799 5.57449 4.6927C5.57449 4.36741 5.31079 4.10371 4.9855 4.10371C4.66021 4.10371 4.39652 4.36741 4.39652 4.6927C4.39652 5.01799 4.66021 5.28168 4.9855 5.28168Z" fill="#73A9D5"/>
<path d="M22.1142 12.7221L28.0518 6.40245H24.6866L20.1754 11.7065C19.7296 12.2445 19.1916 12.9131 18.8095 13.4543H18.7459V3.21238C18.013 3.21238 17.3101 3.50353 16.7918 4.02178C16.2736 4.54003 15.9824 5.24292 15.9824 5.97583V21.7733H16.8134C17.3259 21.7733 17.8174 21.5697 18.1799 21.2073C18.5423 20.8449 18.7459 20.3534 18.7459 19.8408V15.9949L20.1754 14.4031L25.4794 21.7702H28.8796L22.1142 12.7221Z" fill="#73A9D5"/>
<path d="M57.2046 4.8583V3.12955C57.2046 2.39664 56.9135 1.69375 56.3952 1.1755C55.877 0.657251 55.1741 0.366102 54.4412 0.366102V2.20628C55.6509 2.72978 56.6318 3.67115 57.2046 4.8583Z" fill="#5CC19E"/>
<path d="M54.4411 4.04966V14.4699C54.4411 18.6628 52.9798 19.7739 50.5029 19.7739C50.3883 19.7739 50.2737 19.7739 50.1623 19.7739C49.6073 19.7382 49.0584 19.906 48.6183 20.246C48.1782 20.5859 47.877 21.0745 47.7713 21.6205C48.7211 21.9526 49.7196 22.1237 50.7258 22.1267C54.4093 22.1267 57.2046 20.3788 57.2046 14.6959V5.67653L54.4411 4.04966Z" fill="#5CC19E"/>
<path d="M57.5263 5.87721C57.4601 5.52639 57.3533 5.18449 57.2079 4.85843C56.6351 3.67128 55.6542 2.72991 54.4445 2.20641C52.1586 1.10803 49.4747 1.11122 49.4747 1.11122L57.2079 5.68619L57.5263 5.87721Z" fill="white"/>
</svg>
