<svg width="117" height="98" viewBox="0 0 117 98" fill="none" xmlns="http://www.w3.org/2000/svg">
<path d="M55.8716 52.5281C55.6562 51.407 56.1994 50.27 56.4331 49.1884C56.742 47.5603 56.8921 45.9136 56.8823 44.2648C56.8823 43.94 57.1964 43.6769 57.5842 43.6769C57.972 43.6769 58.2861 43.94 58.2861 44.2648C58.2782 45.7222 58.1659 47.1781 57.9492 48.624C57.8558 49.1572 57.7337 49.6822 57.6031 50.1919C57.4824 50.5572 57.3916 50.9296 57.3315 51.3053C56.9574 52.288 57.581 52.9936 59.2034 53.4222C60.0835 53.2576 60.4576 54.3946 59.5775 54.5592L59.5781 54.5587C58.7601 54.7681 57.8728 54.6626 57.1572 54.2704C56.441 53.8783 55.9703 53.2401 55.8717 52.5281L55.8716 52.5281ZM50.3115 37.3969C51.8275 37.4833 53.0073 37.7419 54.2427 36.8872C55.2814 36.1658 53.7654 34.9195 52.7266 35.6408C51.9967 36.1505 49.2074 35.578 48.3084 35.6408V35.6403C46.887 35.6507 45.4741 35.8328 44.1154 36.1817C42.8984 36.5344 40.9051 37.3892 41.6723 38.6908C42.1306 39.475 43.3196 39.1299 43.6003 38.4792C44.6489 37.1224 48.8235 37.3499 50.3114 37.4357L50.3115 37.3969ZM73.327 36.4092V36.4087C72.0676 35.9558 70.7428 35.6425 69.3868 35.4757C68.6569 35.374 65.6432 35.5386 65.2402 35.0836C64.3881 34.1347 62.432 35.0836 63.3214 36.0242V36.0247C64.0337 36.7811 65.1521 37.1874 66.298 37.1065C67.5366 37.1415 68.7699 37.2596 69.9855 37.4592C70.3035 37.5221 73.8415 38.6979 73.9918 38.5097C73.1867 39.5056 75.1148 40.4385 75.9106 39.4504C76.9591 38.1805 74.4128 36.8478 73.327 36.4404V36.4092ZM52.9874 39.3099C53.5117 38.6902 52.2947 38.1024 51.7704 38.7138C50.6566 40.0388 49.1496 41.7555 46.9219 41.301C46.5472 41.2146 46.16 41.3989 46.0562 41.7128C45.953 42.0267 46.1731 42.351 46.5478 42.4379C49.4773 43.0417 51.4806 41.1128 52.9873 39.3098L52.9874 39.3099ZM71.2862 42.4456C71.661 42.3592 71.881 42.0343 71.7779 41.7204C71.6741 41.4065 71.2869 41.2222 70.9121 41.3086C68.6936 41.7713 67.1684 40.0464 66.0636 38.7214C65.5492 38.11 64.3322 38.7214 64.8466 39.3175C66.3725 41.1129 68.3658 43.0418 71.2861 42.438L71.2862 42.4456ZM74.4123 52.904C74.7492 55.0127 73.5603 57.1926 70.9585 57.7257C69.8218 57.9822 68.6146 57.9029 67.5392 57.5015C66.4632 57.1006 65.5857 56.4017 65.0523 55.5229C64.4379 54.3263 64.3583 52.9848 64.8277 51.744C65.4643 49.7447 68.104 47.5813 67.6359 45.4719C67.6346 45.4511 67.6346 45.4298 67.6359 45.409C67.6306 45.3702 67.6306 45.3308 67.6359 45.2914C67.6319 45.2548 67.6319 45.2181 67.6359 45.1815C67.6522 45.1405 67.6744 45.1011 67.7012 45.0639L67.7573 44.9934C67.7841 44.9403 67.8187 44.89 67.8605 44.8446C68.0472 44.7243 68.296 44.6942 68.516 44.7664L68.6374 44.8134C68.7151 44.8621 68.7765 44.9266 68.815 45.0016C70.5464 47.6905 73.8789 49.7446 74.4123 52.9039L74.4123 52.904ZM73.0739 53.5001C72.9185 52.2521 72.3622 51.0627 71.4638 50.058C70.6686 49.0469 69.7324 48.1374 68.8711 47.1651C68.5818 47.9056 68.1927 48.6159 67.7109 49.282C66.2882 51.4377 64.2381 55.5071 68.591 56.5494L68.5903 56.55C69.6957 56.8311 70.8951 56.6326 71.7896 56.0206C72.6841 55.4087 73.1555 54.4631 73.0458 53.5L73.0739 53.5001ZM51.1631 61.9356C50.6297 62.5471 51.8467 63.1349 52.3801 62.5317C55.3756 59.098 63.0413 61.1361 66.1955 63.316C66.8882 63.7939 67.8898 62.9709 67.1879 62.4847C63.181 59.7564 54.7573 57.7804 51.1631 61.9356H51.1631ZM95.5579 56.1343C95.0336 57.7022 92.6185 59.725 91.2338 60.9167C88.2382 63.5039 81.2463 65.1425 76.7355 65.9261C76.091 66.042 75.5113 66.3346 75.0875 66.7573C70.0054 71.7672 66.6639 74.7778 59.1757 74.7778C51.6875 74.7778 48.5713 71.7202 43.4793 66.6397C43.0654 66.2224 42.4999 65.9304 41.8693 65.8085C37.5262 64.9778 30.5152 63.3628 27.6138 60.9085C26.3406 59.8185 23.7199 57.6081 23.2897 56.1261C22.7471 54.2524 23.8982 51.5083 24.2259 49.6893C25.1622 44.4207 28.176 33.8679 28.2131 33.6327C30.4219 16.1187 43.4604 2.62549 59.2031 2.62549C65.858 2.62549 72.0358 5.03993 77.1091 9.14865C77.2586 9.26623 84.5411 16.8869 86.787 21.6929C88.9585 25.1809 93.873 45.4705 94.631 49.6971C94.9588 51.516 96.1751 54.2755 95.5575 56.1339L95.5579 56.1343ZM82.9595 33.1001C82.8988 32.8764 82.8048 32.6604 82.6788 32.457C82.1793 31.652 81.6557 30.8683 81.1066 30.1049H81.1059C80.4929 29.3551 79.7871 28.6612 79.0003 28.0355C78.4988 27.5871 77.8185 27.3093 77.0885 27.254C76.3579 27.1993 75.6293 27.3711 75.041 27.7375C69.8367 30.8732 63.3691 32.1595 56.9294 33.2253C56.4521 33.3035 56.0963 32.7315 56.5834 32.5275H56.5827C57.63 32.1387 58.6381 31.6799 59.5965 31.1554C59.6187 31.1226 59.6435 31.0914 59.6715 31.0613C59.5031 30.8656 54.5423 32.457 54.0552 32.6292C51.247 33.7503 45.3038 32.6292 42.8234 34.2364C42.5054 34.448 42.3742 33.625 43.3098 32.8801H43.3104C43.9105 32.3973 44.5803 31.9784 45.3038 31.6338C46.1741 31.1712 45.2196 31.3046 45.2196 31.3046C41.2695 32.4651 39.3507 32.7238 36.9545 35.6167L36.9552 35.6162C36.8265 35.7732 36.7201 35.9416 36.6366 36.1182C36.3839 36.6438 35.8407 37.7489 35.7754 37.9213C35.4157 38.968 35.1617 40.0377 35.0174 41.12C35.0174 46.9136 35.682 47.8154 37.245 53.2957C37.3012 53.4996 39.1829 57.5608 39.3042 57.7489C40.3058 59.3168 43.8067 64.6012 44.5928 66.0434C44.7195 66.2698 44.8866 66.4787 45.089 66.663C49.9186 71.1238 52.3617 73.7817 59.129 73.7817C66.0929 73.7817 68.7326 70.9986 73.8338 66.3491C74.4514 65.8788 78.3642 60.2886 80.9007 54.3304H80.9001C80.9458 54.2232 80.9836 54.1133 81.0124 54.0011C82.8379 47.1729 84.8312 40.1248 82.9592 33.1006L82.9595 33.1001Z" fill="white"/>
</svg>
