<svg width="133" height="103" viewBox="0 0 133 103" fill="none" xmlns="http://www.w3.org/2000/svg">
<path d="M51.9163 70.0301C49.4136 70.0301 47.3244 68.2484 46.1792 67.2718C46.056 67.1666 45.9432 67.0706 45.8423 66.9867C44.7297 66.0676 39.1098 60.8912 37.2047 58.5962C35.3262 56.3333 35.8747 53.0766 35.9771 52.5564C35.9319 52.2317 35.6276 50.4683 34.2834 49.1106C32.7805 47.5927 32.16 45.0308 32.3301 41.0488C32.6908 32.6002 35.52 26.5966 40.5126 23.6874C47.7653 19.461 58.973 20.0353 63.3639 21.2813C67.2619 22.3884 72.4267 25.2645 75.2315 30.0174C78.2766 35.1765 78.0919 40.1283 77.999 41.2732C79.6341 42.5854 80.135 45.6082 79.8508 48.4211C79.62 50.7042 79.2741 51.0794 78.4428 51.7807C78.0369 52.1232 77.5307 52.5497 76.8212 53.5165C76.0834 54.5212 75.1972 55.0581 74.188 55.1121C73.4176 55.1535 72.7466 54.8937 72.2598 54.6167C71.8078 55.9197 70.8571 58.5925 69.9872 60.611C68.9964 62.9141 65.2469 64.8793 62.509 66.3139C61.7372 66.7186 61.0714 67.0681 60.5809 67.3641C58.1919 68.8096 54.9187 69.8528 52.2431 70.0207C52.1355 70.027 52.0257 70.0305 51.9173 70.0305L51.9163 70.0301ZM55.2295 21.317C50.6598 21.317 45.3071 22.0959 41.2594 24.4541C36.5768 27.1826 33.9176 32.932 33.5695 41.0813C33.4099 44.8288 33.9495 47.1946 35.2684 48.527C36.9754 50.2519 37.2115 52.4429 37.2202 52.5354L37.2262 52.5946L37.2128 52.6533C37.2054 52.6866 36.507 55.9812 38.2467 58.078C40.117 60.3306 45.6493 65.4254 46.7461 66.3306C46.8515 66.418 46.9688 66.5174 47.0965 66.6266C48.1474 67.5227 50.115 69.1936 52.1432 69.0632C54.5561 68.9115 57.6407 67.9246 59.8183 66.6072C60.3415 66.2905 61.0244 65.933 61.8148 65.5186C64.4058 64.161 67.9541 62.301 68.8121 60.3071C69.9855 57.581 71.3148 53.6334 71.3281 53.5937L71.648 52.643L72.4199 53.4224C72.6381 53.6391 73.3714 54.1995 74.1076 54.1541C74.6746 54.1225 75.2261 53.7483 75.7441 53.0425C76.5227 51.9815 77.1053 51.4906 77.5298 51.132C78.1689 50.5923 78.4086 50.3905 78.6149 48.3466C78.9585 44.9427 78.0078 41.9833 76.4506 41.6091C74.918 41.2389 73.8715 42.6736 73.8603 42.6879L72.7753 42.2235C73.2993 41.4884 74.8066 40.2274 76.786 40.6837C76.8327 39.0105 76.6561 34.7398 74.1045 30.4171C71.4578 25.9332 66.6003 23.2237 62.9369 22.1834C61.2239 21.6971 58.417 21.3178 55.2293 21.3178L55.2295 21.317Z" fill="white"/>
<path d="M73.6574 51.3445C73.293 51.3445 72.9493 51.2295 72.6621 51.0071L73.5386 50.3283C73.6262 50.3961 73.6626 50.3886 73.7101 50.3777C74.3357 50.2409 75.2798 48.9643 75.4943 48.2718C75.8454 47.1395 76.1036 44.7645 75.7659 44.3035H75.7563C75.4987 44.3035 74.7603 44.6984 74.1777 45.218L73.2418 44.588C73.6811 44.196 75.2107 42.9556 76.3982 43.4678C77.9175 44.1213 76.7137 48.4528 76.7003 48.4959C76.4821 49.1989 75.4096 51.0043 74.0469 51.302C73.9156 51.3307 73.7849 51.3445 73.6573 51.3445H73.6574Z" fill="white"/>
<path d="M33.6889 45.7648L32.6914 45.1935C32.7307 45.1527 33.6674 44.1813 34.9691 43.7451C37.0643 43.0421 41.3096 43.7502 41.4892 43.7801L41.2242 44.7182C40.1087 44.5296 36.8973 44.1451 35.4619 44.6256C34.4718 44.9584 33.6962 45.7568 33.6888 45.7648L33.6889 45.7648Z" fill="white"/>
<path d="M49.8281 43.7357L49.2715 42.8776C49.8163 42.6655 54.6331 40.8043 56.0522 40.6894C57.5017 40.5721 61.5867 41.2745 62.1419 41.4464L61.6803 42.3378C61.2579 42.208 57.3994 41.5475 56.1807 41.6441C55.2812 41.7171 51.8069 42.9655 49.8282 43.7357L49.8281 43.7357Z" fill="white"/>
<path d="M45.627 55.4719C45.3331 55.4719 44.3519 55.3506 43.7886 55.1155C43.0998 54.8287 43.0998 53.9051 43.2215 53.1809L44.4521 53.3039C44.3883 53.6879 44.3949 54.1339 44.4617 54.3023C44.8217 54.4242 45.4689 54.5098 45.6292 54.5121L45.627 55.4719Z" fill="white"/>
<path d="M48.3149 60.516C46.9626 60.516 45.7698 60.1337 45.7031 60.1119L46.1833 59.2262C46.2011 59.2319 47.992 59.7998 49.3569 59.4331C50.8323 59.0353 52.1809 58.0754 52.1943 58.0657L53.0375 58.7698C52.9744 58.8146 51.4818 59.8768 49.7638 60.3395C49.2895 60.4683 48.7922 60.516 48.315 60.516H48.3149Z" fill="white"/>
<path d="M68.3302 80.1373C68.3086 80.1373 68.2893 80.1362 68.27 80.1345C67.6845 80.0776 67.4418 79.8638 64.706 74.589C63.9891 73.2072 63.3122 71.9018 62.8676 71.1564C62.5693 70.6564 61.7091 69.6235 59.3051 67.548L58.8457 67.1514L59.5626 66.7508C59.6495 66.7037 59.7371 66.656 59.8187 66.6065C60.342 66.2898 61.0248 65.9323 61.8152 65.5179C64.4063 64.1603 67.9545 62.3003 68.8126 60.3064C69.986 57.5797 71.3152 53.6327 71.3285 53.593L71.6484 52.6423L72.4203 53.4217C72.6244 53.6241 73.3117 54.1534 74.0219 54.1552L74.583 54.1563L74.6372 54.5891C75.5879 62.2192 76.126 64.0822 76.3628 64.5132C77.2779 66.1846 81.7014 69.1568 81.7459 69.1867L82.2231 69.5063L81.8023 69.8701C78.8424 72.4319 74.2824 76.4496 73.8534 77.0175C73.2738 77.7848 69.4063 80.1373 68.3301 80.1373L68.3302 80.1373ZM60.6826 67.3026C62.4327 68.8425 63.5452 70.0024 63.9936 70.7536C64.4507 71.5209 65.1336 72.8371 65.8565 74.231C66.7337 75.922 68.0154 78.3929 68.5527 79.1097C69.5243 78.7412 72.3083 77.16 72.7818 76.5329C73.3458 75.7857 78.7905 71.0404 80.4619 69.5895C79.2448 68.7406 76.0638 66.4283 75.2198 64.8879C74.7612 64.0498 74.1652 60.7443 73.4497 55.0615C72.9881 54.9765 72.5836 54.8 72.2607 54.6155C71.808 55.9185 70.8573 58.5913 69.9882 60.6098C68.9973 62.9129 65.2478 64.8781 62.5099 66.3128C61.79 66.6904 61.1614 67.0198 60.6827 67.3025L60.6826 67.3026Z" fill="white"/>
<path d="M60.7492 89.5912L59.5098 89.5751C59.5098 89.2803 60.6015 85.1149 61.6725 84.4803C62.1453 84.1774 64.7266 81.0747 66.9466 78.2515L68.0064 78.7509C66.9057 80.1505 63.2505 84.7551 62.4259 85.243C61.8878 85.6339 60.799 89.0911 60.7493 89.5912L60.7492 89.5912Z" fill="white"/>
<path d="M107.736 89.5751H106.497C106.497 84.1498 105.472 80.4736 103.451 78.6468C100.982 76.4161 90.9504 72.933 87.6543 71.7886L88.162 70.9121C93.9919 72.9365 102.018 75.8758 104.392 78.0221C105.219 78.7693 107.737 81.0442 107.737 89.5751H107.736Z" fill="white"/>
<path d="M79.9277 89.5751H78.6875C78.6875 88.2077 81.4752 81.0058 83.7894 79.7045C85.0882 78.9739 88.8711 78.079 89.0322 78.041L89.3929 78.9601C88.3554 79.2044 85.4563 79.9539 84.5183 80.4815C82.6947 81.5064 79.9279 88.3887 79.9279 89.5751L79.9277 89.5751Z" fill="white"/>
<path d="M56.4448 46.1532C56.4448 46.6486 55.926 47.0504 55.2863 47.0504C54.6457 47.0504 54.127 46.6486 54.127 46.1532C54.127 45.6571 54.6457 45.2554 55.2863 45.2554C55.926 45.2554 56.4448 45.6571 56.4448 46.1532Z" fill="white"/>
<path d="M42.3608 48.4928C42.3608 48.9882 41.842 49.39 41.2023 49.39C40.5618 49.39 40.043 48.9882 40.043 48.4928C40.043 47.9967 40.5618 47.595 41.2023 47.595C41.842 47.595 42.3608 47.9967 42.3608 48.4928Z" fill="white"/>
<path d="M27.3004 17.0278C27.3004 17.0278 25.3825 20.6736 25.0337 22.767C24.6848 24.8604 27.1259 32.4221 28.6955 33.3676C30.2645 34.3131 36.3111 35.7984 40.0442 35.8656C43.7781 35.9329 59.7282 33.2998 61.9094 30.734C61.9094 30.734 64.8759 31.7468 65.748 33.9073C66.6201 36.068 68.2767 49.0042 68.8868 49.3897C69.4969 49.7748 71.6768 49.8829 71.7636 49.3897C71.8504 48.8965 71.6879 41.924 74.8207 41.2917C74.8207 41.2917 78.5502 40.433 78.922 43.9553C79.2939 47.4776 79.6635 49.8881 78.2786 51.2009C76.8936 52.5142 75.9592 54.1718 74.82 54.488C73.6807 54.8047 73.6436 54.6024 73.6436 54.6024C73.6436 54.6024 74.0733 55.0812 74.1743 55.8497C74.2752 56.6182 74.7324 59.834 74.7324 59.834C74.7324 59.834 76.7764 56.6952 77.4302 55.2772C78.084 53.8591 79.915 52.5091 80.3946 50.7197C80.8741 48.9305 84.1433 43.0901 84.4484 40.5922C84.7535 38.0941 83.94 26.4584 79.8713 22.2729C75.8027 18.0868 69.8162 14.6657 61.33 15.0261C52.8439 15.3859 48.6015 17.7269 44.2997 17.8167C40.0002 17.9063 36.0266 18.5368 33.1891 17.5913C30.3517 16.6464 27.3875 16.0614 27.2999 17.0286L27.3004 17.0278Z" fill="white"/>
<path d="M71.7702 85.2301C71.0429 85.2301 70.6117 84.5024 69.4376 82.3469C69.0918 81.7118 68.6101 80.8278 68.2806 80.3587C67.5621 80.8548 66.2381 81.7037 65.262 81.9577L64.8672 81.0479C65.7712 80.8122 67.3765 79.715 67.919 79.312L68.2032 79.1011L68.5706 79.2103C69.1235 79.3747 69.5369 80.0592 70.5797 81.9738C70.9626 82.6762 71.5044 83.6723 71.8466 84.1218C72.824 83.3763 75.4923 80.7903 77.3262 79.0125C78.8952 77.4911 80.2505 76.1777 80.8856 75.6461C81.7421 74.9293 83.4818 73.7844 85.0159 72.7738C86.046 72.0956 87.2915 71.2759 87.7583 70.9047C87.0755 70.3172 84.3161 68.8522 83.3927 68.4567C82.983 68.7435 82.0939 69.5395 81.3865 70.231L80.4142 69.6339C82.7491 67.3526 83.1284 67.3974 83.4616 67.4405C84.0472 67.5158 88.3927 69.7448 88.9806 70.5828C89.1594 70.8391 89.1134 71.0415 89.0436 71.1668C88.8744 71.4656 88.205 71.9341 85.8203 73.5044C84.3122 74.4976 82.6028 75.623 81.7969 76.2972C81.192 76.803 79.7848 78.1669 78.2952 79.6109C73.1139 84.6345 72.4067 85.1902 71.8448 85.227C71.8189 85.2293 71.7944 85.2299 71.7699 85.2299L71.7702 85.2301Z" fill="white"/>
<path d="M66.3984 86.0716L66.1668 85.6589C65.7274 84.8726 64.3024 82.2436 64.4501 81.4343L65.6777 81.5682C65.6235 81.8982 66.2945 83.4006 67.0329 84.7795C67.7744 84.3749 69.068 83.5391 70.1398 82.7919L70.9696 83.5058C70.2437 84.0121 67.807 85.6819 66.9454 85.9204L66.3984 86.0716Z" fill="white"/>
<path d="M64.8574 89.5751H63.6172C63.6172 88.3031 65.5616 84.932 65.7836 84.5515L66.9132 84.947C66.3417 85.9275 64.8574 88.6714 64.8574 89.575V89.5751Z" fill="white"/>
<path d="M69.6234 89.575H68.3832C68.3832 88.0346 66.9211 85.3366 66.9062 85.3096L68.0485 84.936C68.1123 85.0539 69.6234 87.8421 69.6234 89.575L69.6234 89.575Z" fill="white"/>
</svg>
