<svg width="30" height="29" viewBox="0 0 30 29" fill="none" xmlns="http://www.w3.org/2000/svg">
<path d="M12.5 9.68896H20V11.2426H12.5V9.68896Z" fill="#3E3E3E"/>
<path d="M12.5 12.7959H20V14.3495H12.5V12.7959Z" fill="#3E3E3E"/>
<path d="M12.5 15.9033H20V17.4569H12.5V15.9033Z" fill="#3E3E3E"/>
<path d="M12.5 19.0103H20V20.5639H12.5V19.0103Z" fill="#3E3E3E"/>
<path d="M9.16602 6.58154H10.8327V8.13515H9.16602V6.58154Z" fill="#3E3E3E"/>
<path d="M9.16602 9.68896H10.8327V11.2426H9.16602V9.68896Z" fill="#3E3E3E"/>
<path d="M9.16602 12.7959H10.8327V14.3495H9.16602V12.7959Z" fill="#3E3E3E"/>
<path d="M9.16602 15.9033H10.8327V17.4569H9.16602V15.9033Z" fill="#3E3E3E"/>
<path d="M9.16602 19.0107H10.8327V20.5643H9.16602V19.0107Z" fill="#3E3E3E"/>
<path d="M12.5 6.58154V8.13515H19.7167C19.3887 7.65415 19.1388 7.13063 18.975 6.58154H12.5Z" fill="#3E3E3E"/>
<path d="M23.3333 10.6366V25.225H6.66667V3.47451H18.9833C19.1445 2.92585 19.3916 2.40236 19.7167 1.9209H6.66667C6.22464 1.9209 5.80072 2.08458 5.48816 2.37594C5.17559 2.6673 5 3.06246 5 3.47451V25.225C5 25.6371 5.17559 26.0322 5.48816 26.3236C5.80072 26.6149 6.22464 26.7786 6.66667 26.7786H23.3333C23.7754 26.7786 24.1993 26.6149 24.5118 26.3236C24.8244 26.0322 25 25.6371 25 25.225V10.8541C24.4365 10.8521 23.8758 10.7789 23.3333 10.6366Z" fill="#3E3E3E"/>
<path d="M25.0007 8.91208C27.3018 8.91208 29.1673 7.17315 29.1673 5.02806C29.1673 2.88298 27.3018 1.14404 25.0007 1.14404C22.6995 1.14404 20.834 2.88298 20.834 5.02806C20.834 7.17315 22.6995 8.91208 25.0007 8.91208Z" fill="#3E3E3E"/>
</svg>
