<svg width="27" height="26" viewBox="0 0 27 26" fill="none" xmlns="http://www.w3.org/2000/svg">
<path d="M22.5692 1.68896C22.4725 1.6377 22.3875 1.5691 22.3193 1.48713C22.2511 1.40515 22.201 1.31142 22.1718 1.21132C22.1427 1.11122 22.135 1.00673 22.1494 0.903873C22.1637 0.801015 22.1998 0.701817 22.2554 0.61199C22.3111 0.522164 22.3853 0.443483 22.4737 0.380478C22.5621 0.317473 22.663 0.271388 22.7706 0.244876C22.8783 0.218364 22.9904 0.211949 23.1007 0.226C23.211 0.240052 23.3172 0.274292 23.4133 0.326749C25.0198 1.19118 26.2045 2.60186 26.7188 4.26275C27.2331 5.92364 27.037 7.70559 26.1716 9.23463C26.0643 9.41441 25.8858 9.54788 25.6742 9.60645C25.4626 9.66501 25.2348 9.644 25.0396 9.54792C24.8444 9.45185 24.6974 9.28834 24.6301 9.09246C24.5627 8.89659 24.5804 8.68392 24.6793 8.50004C25.3407 7.33077 25.4904 5.96823 25.097 4.69833C24.7036 3.42842 23.7976 2.34987 22.5692 1.68896ZM20.8811 4.41339C20.7844 4.36213 20.6994 4.29353 20.6312 4.21156C20.563 4.12958 20.5129 4.03585 20.4838 3.93575C20.4546 3.83565 20.447 3.73116 20.4613 3.6283C20.4757 3.52544 20.5117 3.42625 20.5674 3.33642C20.623 3.24659 20.6972 3.16791 20.7856 3.10491C20.874 3.0419 20.975 2.99582 21.0826 2.96931C21.1902 2.94279 21.3024 2.93638 21.4126 2.95043C21.5229 2.96448 21.6291 2.99872 21.7252 3.05118C22.5496 3.49454 23.1653 4.21019 23.4504 5.05644C23.7355 5.90269 23.6693 6.81785 23.2647 7.62073C23.1693 7.80951 22.9974 7.95525 22.7867 8.02591C22.576 8.09656 22.3439 8.08633 22.1413 7.99747C21.9387 7.90861 21.7823 7.74839 21.7065 7.55208C21.6306 7.35576 21.6416 7.13941 21.737 6.95064C21.9613 6.50468 21.9978 5.99655 21.8393 5.52672C21.6808 5.0569 21.3389 4.65959 20.8811 4.41339ZM4.43079 23.917C4.52755 23.9682 4.61248 24.0368 4.68068 24.1188C4.74888 24.2008 4.799 24.2945 4.82817 24.3946C4.85733 24.4947 4.86496 24.5992 4.85061 24.7021C4.83627 24.8049 4.80023 24.9041 4.74457 24.9939C4.68891 25.0838 4.61474 25.1625 4.52631 25.2255C4.43789 25.2885 4.33697 25.3346 4.22935 25.3611C4.12174 25.3876 4.00956 25.394 3.89927 25.3799C3.78899 25.3659 3.68277 25.3316 3.58675 25.2792C1.98023 24.4148 0.795513 23.0041 0.281219 21.3432C-0.233074 19.6823 -0.0369531 17.9004 0.828421 16.3713C0.878773 16.2777 0.948671 16.1944 1.03402 16.1263C1.11936 16.0582 1.21844 16.0067 1.32544 15.9748C1.43244 15.9428 1.54521 15.9311 1.65713 15.9403C1.76905 15.9495 1.87787 15.9794 1.97722 16.0284C2.07656 16.0773 2.16443 16.1442 2.23567 16.2251C2.30691 16.3061 2.36008 16.3995 2.39207 16.4998C2.42406 16.6002 2.43422 16.7055 2.42197 16.8096C2.40971 16.9137 2.37527 17.0144 2.32068 17.1059C1.65927 18.2752 1.50956 19.6377 1.90298 20.9076C2.29641 22.1775 3.20237 23.2561 4.43079 23.917ZM6.11887 21.1925C6.21563 21.2438 6.30056 21.3124 6.36876 21.3944C6.43696 21.4764 6.48708 21.5701 6.51625 21.6702C6.54541 21.7703 6.55304 21.8748 6.53869 21.9776C6.52435 22.0805 6.48831 22.1797 6.43265 22.2695C6.37699 22.3594 6.30282 22.438 6.21439 22.501C6.12597 22.564 6.02505 22.6101 5.91743 22.6366C5.80982 22.6631 5.69764 22.6696 5.58735 22.6555C5.47707 22.6415 5.37085 22.6072 5.27483 22.5548C4.45041 22.1114 3.83469 21.3958 3.54958 20.5495C3.26447 19.7032 3.33075 18.7881 3.7353 17.9852C3.83066 17.7964 4.00259 17.6507 4.21327 17.58C4.42395 17.5094 4.65613 17.5196 4.85871 17.6085C5.0613 17.6973 5.21771 17.8575 5.29353 18.0539C5.36935 18.2502 5.35837 18.4665 5.26301 18.6553C5.03875 19.1013 5.00224 19.6094 5.16073 20.0792C5.31921 20.549 5.66113 20.9463 6.11887 21.1925ZM16.2085 4.51878C16.157 4.32419 16.0644 4.14113 15.936 3.98031C15.8077 3.81949 15.6462 3.68415 15.461 3.5822C15.2758 3.48025 15.0707 3.41374 14.8576 3.38658C14.6445 3.35941 14.4277 3.37212 14.22 3.42398L7.9977 5.00484C7.11315 5.22978 6.56283 6.11066 6.80592 6.97423L10.7999 21.0887C10.8514 21.2831 10.944 21.466 11.0723 21.6267C11.2005 21.7874 11.3618 21.9227 11.5468 22.0246C11.7318 22.1266 11.9367 22.1931 12.1496 22.2204C12.3625 22.2477 12.5791 22.2352 12.7868 22.1835L19.0124 20.6027C19.897 20.3777 20.4473 19.4969 20.2042 18.6333L16.2102 4.51878H16.2085ZM13.7895 1.90446C14.2105 1.79802 14.6501 1.77071 15.0826 1.82411C15.515 1.87752 15.9318 2.01057 16.3085 2.21552C16.6852 2.42048 17.0145 2.69324 17.277 3.01791C17.5395 3.34259 17.73 3.71269 17.8375 4.10666L21.8298 18.2212C22.3076 19.9058 21.2458 21.666 19.4412 22.1253L13.2156 23.7062C12.7945 23.8126 12.355 23.84 11.9225 23.7865C11.49 23.7331 11.0733 23.6001 10.6966 23.3951C10.3198 23.1902 9.99061 22.9174 9.7281 22.5927C9.4656 22.2681 9.27504 21.898 9.16754 21.504L5.17523 7.38636C4.69919 5.70325 5.76099 3.9415 7.56555 3.48218L13.7895 1.90132V1.90446ZM12.9674 19.6919C12.9135 19.4881 12.947 19.2727 13.0608 19.0914C13.1746 18.9102 13.3597 18.7775 13.5768 18.7214L16.585 17.9585C16.6911 17.9311 16.802 17.9239 16.9111 17.9372C17.0203 17.9506 17.1255 17.9842 17.2204 18.0362C17.3153 18.0881 17.3981 18.1573 17.4638 18.2396C17.5295 18.3219 17.5768 18.4156 17.6029 18.5153C17.6562 18.7192 17.6222 18.9343 17.5081 19.1152C17.3941 19.2961 17.2089 19.4285 16.9918 19.4843L13.9853 20.2488C13.8792 20.2761 13.7683 20.2833 13.6592 20.27C13.55 20.2566 13.4448 20.223 13.3499 20.1711C13.255 20.1191 13.1722 20.05 13.1065 19.9676C13.0408 19.8853 12.9935 19.7916 12.9674 19.6919Z" fill="#3E3E3E"/>
</svg>
