<svg width="18" height="18" viewBox="0 0 18 18" fill="none" xmlns="http://www.w3.org/2000/svg">
<g clip-path="url(#clip0_69_318)">
<path d="M7.26173 0C3.41225 0 0.291016 3.12126 0.291016 6.97071C0.291016 10.8202 3.41225 13.9415 7.26173 13.9415C8.74198 13.9415 10.1148 13.4797 11.2432 12.6932L16.5147 17.9639C16.5623 18.0115 16.6394 18.0115 16.6845 17.9672L17.6776 16.9741C17.7235 16.9282 17.7195 16.8494 17.6743 16.8043L12.4717 11.6017C13.5673 10.3708 14.2324 8.74863 14.2324 6.97068C14.2325 3.12126 11.1112 0 7.26173 0ZM7.26173 13.1213C3.86495 13.1213 1.11109 10.3675 1.11109 6.97071C1.11109 3.57393 3.86492 0.820106 7.26173 0.820106C10.6585 0.820106 13.4123 3.57393 13.4123 6.97071C13.4123 10.3675 10.6585 13.1213 7.26173 13.1213Z" fill="white"/>
</g>
<defs>
<clipPath id="clip0_69_318">
<rect width="18" height="18" fill="white"/>
</clipPath>
</defs>
</svg>
