<svg width="40" height="40" viewBox="0 0 40 40" fill="none" xmlns="http://www.w3.org/2000/svg">
<path d="M32.5 33.75H7.5C6.50544 33.75 5.55161 33.3549 4.84835 32.6517C4.14509 31.9484 3.75 30.9946 3.75 30V15C3.75 14.0054 4.14509 13.0516 4.84835 12.3483C5.55161 11.6451 6.50544 11.25 7.5 11.25H12.775L13.3125 9.0875C13.5159 8.27681 13.9843 7.5573 14.6433 7.04322C15.3023 6.52913 16.1142 6.24995 16.95 6.25H23.05C23.8858 6.24995 24.6977 6.52913 25.3567 7.04322C26.0157 7.5573 26.4841 8.27681 26.6875 9.0875L27.225 11.25H32.5C33.4946 11.25 34.4484 11.6451 35.1517 12.3483C35.8549 13.0516 36.25 14.0054 36.25 15V30C36.25 30.9946 35.8549 31.9484 35.1517 32.6517C34.4484 33.3549 33.4946 33.75 32.5 33.75ZM7.5 13.75C7.16848 13.75 6.85054 13.8817 6.61612 14.1161C6.3817 14.3505 6.25 14.6685 6.25 15V30C6.25 30.3315 6.3817 30.6495 6.61612 30.8839C6.85054 31.1183 7.16848 31.25 7.5 31.25H32.5C32.8315 31.25 33.1495 31.1183 33.3839 30.8839C33.6183 30.6495 33.75 30.3315 33.75 30V15C33.75 14.6685 33.6183 14.3505 33.3839 14.1161C33.1495 13.8817 32.8315 13.75 32.5 13.75H26.25C25.9645 13.7583 25.6847 13.6686 25.4572 13.4957C25.2298 13.3229 25.0684 13.0773 25 12.8L24.225 9.6875C24.1541 9.41247 23.9917 9.16978 23.7645 8.99937C23.5373 8.82897 23.2589 8.74102 22.975 8.75H16.95C16.6661 8.74102 16.3877 8.82897 16.1605 8.99937C15.9333 9.16978 15.7709 9.41247 15.7 9.6875L15 12.8C14.9316 13.0773 14.7702 13.3229 14.5428 13.4957C14.3153 13.6686 14.0355 13.7583 13.75 13.75H7.5Z" fill="#797979"/>
<path d="M20 28.75C18.7639 28.75 17.5555 28.3834 16.5277 27.6967C15.4999 27.0099 14.6988 26.0338 14.2258 24.8918C13.7527 23.7497 13.6289 22.4931 13.8701 21.2807C14.1113 20.0683 14.7065 18.9547 15.5806 18.0806C16.4547 17.2065 17.5683 16.6113 18.7807 16.3701C19.9931 16.1289 21.2497 16.2527 22.3918 16.7258C23.5338 17.1988 24.5099 17.9999 25.1967 19.0277C25.8834 20.0555 26.25 21.2639 26.25 22.5C26.25 23.3208 26.0883 24.1335 25.7743 24.8918C25.4602 25.6501 24.9998 26.3391 24.4194 26.9194C23.8391 27.4998 23.1501 27.9602 22.3918 28.2743C21.6335 28.5883 20.8208 28.75 20 28.75V28.75ZM20 18.75C19.2583 18.75 18.5333 18.9699 17.9166 19.382C17.2999 19.794 16.8193 20.3797 16.5355 21.0649C16.2516 21.7502 16.1774 22.5042 16.3221 23.2316C16.4668 23.959 16.8239 24.6272 17.3484 25.1517C17.8728 25.6761 18.541 26.0333 19.2684 26.1779C19.9958 26.3226 20.7498 26.2484 21.4351 25.9646C22.1203 25.6807 22.706 25.2001 23.118 24.5834C23.5301 23.9667 23.75 23.2417 23.75 22.5C23.75 21.5054 23.3549 20.5516 22.6517 19.8484C21.9484 19.1451 20.9946 18.75 20 18.75Z" fill="#797979"/>
<path d="M30 18.75H28.75C28.4185 18.75 28.1005 18.6183 27.8661 18.3839C27.6317 18.1495 27.5 17.8315 27.5 17.5C27.5 17.1685 27.6317 16.8505 27.8661 16.6161C28.1005 16.3817 28.4185 16.25 28.75 16.25H30C30.3315 16.25 30.6495 16.3817 30.8839 16.6161C31.1183 16.8505 31.25 17.1685 31.25 17.5C31.25 17.8315 31.1183 18.1495 30.8839 18.3839C30.6495 18.6183 30.3315 18.75 30 18.75Z" fill="#797979"/>
</svg>
