<svg width="18" height="18" viewBox="0 0 18 18" fill="none" xmlns="http://www.w3.org/2000/svg">
<path d="M17.6484 3.95174C17.414 3.71732 17.1311 3.6001 16.7999 3.6001H1.2C0.868746 3.6001 0.585994 3.71736 0.35161 3.95174C0.117258 4.18612 0 4.46897 0 4.80013V13.2001C0 13.5314 0.117258 13.8141 0.35161 14.0485C0.586027 14.2829 0.868746 14.4002 1.2 14.4002H16.7999C17.1311 14.4002 17.414 14.2829 17.6484 14.0485C17.8827 13.8141 18 13.5314 18 13.2001V4.80013C18 4.46897 17.8827 4.18612 17.6484 3.95174ZM16.7999 13.2001H1.2V4.80013H16.7999V13.2001Z" fill="#B9B9B9"/>
<path d="M2.55039 11.9998H3.45036C3.55038 11.9998 3.60039 11.9497 3.60039 11.8498V10.9498C3.60039 10.85 3.55048 10.7998 3.45036 10.7998H2.55039C2.45043 10.7998 2.40039 10.85 2.40039 10.9498V11.8498C2.40039 11.9497 2.45043 11.9998 2.55039 11.9998Z" fill="#B9B9B9"/>
<path d="M2.55039 9.60005H4.65039C4.75038 9.60005 4.80045 9.54981 4.80045 9.44993V8.5499C4.80045 8.44991 4.75038 8.4 4.65039 8.3999H2.55039C2.45043 8.3999 2.40039 8.44991 2.40039 8.5499V9.44993C2.40039 9.54981 2.45043 9.60005 2.55039 9.60005Z" fill="#B9B9B9"/>
<path d="M2.55039 7.20003H3.45036C3.55038 7.20003 3.60039 7.14996 3.60039 7.04997V6.15006C3.60039 6.05004 3.55048 6.00016 3.45036 6H2.55039C2.45043 6 2.40039 6.05004 2.40039 6.15006V7.04997C2.40039 7.14996 2.45043 7.20003 2.55039 7.20003Z" fill="#B9B9B9"/>
<path d="M13.0508 10.8003H4.95084C4.85082 10.8003 4.80078 10.8504 4.80078 10.9504V11.8503C4.80078 11.9501 4.85082 12.0004 4.95084 12.0004H13.0505C13.1506 12.0004 13.2007 11.9503 13.2007 11.8503V10.9504C13.2007 10.8504 13.1506 10.8003 13.0508 10.8003Z" fill="#B9B9B9"/>
<path d="M6 9.44993C6 9.54981 6.05001 9.60005 6.1499 9.60005H7.05C7.14996 9.60005 7.1999 9.54981 7.1999 9.44993V8.5499C7.1999 8.44991 7.15005 8.4 7.05 8.3999H6.1499C6.05001 8.3999 6 8.44991 6 8.5499V9.44993Z" fill="#B9B9B9"/>
<path d="M4.95084 7.20003H5.85076C5.95078 7.20003 6.00083 7.14996 6.00083 7.04997V6.15006C6.00083 6.05004 5.95078 6.00016 5.85076 6H4.95084C4.85082 6 4.80078 6.05004 4.80078 6.15006V7.04997C4.80078 7.14996 4.85086 7.20003 4.95084 7.20003Z" fill="#B9B9B9"/>
<path d="M8.40039 9.44993C8.40039 9.54981 8.45043 9.60005 8.55039 9.60005H9.45036C9.55038 9.60005 9.60049 9.54981 9.60049 9.44993V8.5499C9.60049 8.44991 9.55038 8.4 9.45036 8.3999H8.55039C8.45043 8.3999 8.40039 8.44991 8.40039 8.5499V9.44993Z" fill="#B9B9B9"/>
<path d="M7.34928 7.20003H8.24919C8.34921 7.20003 8.39925 7.14996 8.39925 7.04997V6.15006C8.39925 6.05004 8.34931 6.00016 8.24919 6H7.34928C7.24926 6 7.19922 6.05004 7.19922 6.15006V7.04997C7.19922 7.14996 7.24926 7.20003 7.34928 7.20003Z" fill="#B9B9B9"/>
<path d="M10.8008 9.44993C10.8008 9.54981 10.8509 9.60005 10.9506 9.60005H11.8508C11.9507 9.60005 12.0006 9.54981 12.0006 9.44993V8.5499C12.0006 8.44991 11.9507 8.4 11.8508 8.3999H10.9506C10.8509 8.3999 10.8008 8.44991 10.8008 8.5499V9.44993Z" fill="#B9B9B9"/>
<path d="M15.4503 10.8003H14.5505C14.4505 10.8003 14.4004 10.8504 14.4004 10.9504V11.8503C14.4004 11.9501 14.4505 12.0004 14.5505 12.0004H15.4503C15.5503 12.0004 15.6005 11.9503 15.6005 11.8503V10.9504C15.6005 10.8504 15.5504 10.8003 15.4503 10.8003Z" fill="#B9B9B9"/>
<path d="M9.74951 7.20003H10.6496C10.7496 7.20003 10.7995 7.14996 10.7995 7.04997V6.15006C10.7995 6.05004 10.7496 6.00016 10.6496 6H9.74951C9.64949 6 9.59961 6.05004 9.59961 6.15006V7.04997C9.59958 7.14996 9.64949 7.20003 9.74951 7.20003Z" fill="#B9B9B9"/>
<path d="M12.1501 7.20003H13.05C13.15 7.20003 13.2001 7.14996 13.2001 7.04997V6.15006C13.2001 6.05004 13.15 6.00016 13.05 6H12.1501C12.0501 6 12 6.05004 12 6.15006V7.04997C12 7.14996 12.0501 7.20003 12.1501 7.20003Z" fill="#B9B9B9"/>
<path d="M13.1992 9.45003C13.1992 9.54992 13.2492 9.60016 13.3492 9.60016H15.4492C15.5492 9.60016 15.5993 9.54992 15.5993 9.45003V6.15006C15.5993 6.05004 15.5493 6.00016 15.4492 6H14.5493C14.4493 6 14.3992 6.05004 14.3992 6.15006V8.4H13.3492C13.2492 8.4 13.1993 8.45001 13.1993 8.54999V9.45003H13.1992Z" fill="#B9B9B9"/>
</svg>
