<svg width="24" height="24" viewBox="0 0 24 24" fill="none" xmlns="http://www.w3.org/2000/svg">
<path d="M13.3179 0C12.2557 0 12.6129 2.2701 12.6129 2.2701C12.6129 2.2701 10.3428 8.5305 8.1714 10.199C7.7061 10.6878 7.4147 11.2283 7.2314 11.6701C7.1891 11.7782 7.1515 11.8816 7.1186 11.9756C6.9729 12.2717 6.6627 12.7276 6 13.1271L8.1714 22.5694C8.1714 22.5694 11.5319 23.0065 14.9018 22.936C16.2507 23.0441 17.6795 23.0535 18.8169 22.8091C22.6803 21.9866 21.7121 19.2935 21.7121 19.2935C23.7942 17.7284 22.6098 15.7732 22.6098 15.7732C24.4616 13.8415 22.6427 12.22 22.6427 12.22C22.6427 12.22 23.6438 10.6596 22.3513 9.4799C20.7392 8.0041 16.3635 8.9864 16.3635 8.9864C16.058 9.0381 15.7337 9.1039 15.3859 9.1885C15.3859 9.1885 13.8725 9.8935 15.3859 5.3016C16.904 0.709701 14.3801 0 13.3179 0Z" fill="#73A9D5"/>
<path d="M5.7904 21.888L4.1454 14.0719C4.0514 13.6254 3.6002 13.2588 3.1443 13.2588H0.0047L0 22.6964H5.1277C5.5883 22.7011 5.8844 22.3345 5.7904 21.888Z" fill="#73A9D5"/>
</svg>
