<svg width="25" height="22" viewBox="0 0 25 22" fill="none" xmlns="http://www.w3.org/2000/svg">
<path d="M21.0581 1.4198C21.457 1.4198 21.8396 1.56938 22.1217 1.83565C22.4038 2.10191 22.5623 2.46304 22.5623 2.83959V14.198C22.5623 14.5745 22.4038 14.9357 22.1217 15.2019C21.8396 15.4682 21.457 15.6178 21.0581 15.6178H6.63932C5.84154 15.6179 5.07649 15.9172 4.51245 16.4498L1.50415 19.2894V2.83959C1.50415 2.46304 1.66262 2.10191 1.94471 1.83565C2.22679 1.56938 2.60938 1.4198 3.0083 1.4198H21.0581ZM3.0083 0C2.21045 0 1.44528 0.299171 0.881111 0.831698C0.316945 1.36423 0 2.08649 0 2.83959L0 21.0031C3.16096e-05 21.1435 0.0442109 21.2808 0.126946 21.3976C0.209682 21.5143 0.327254 21.6053 0.464782 21.659C0.60231 21.7126 0.753611 21.7266 0.899537 21.699C1.04546 21.6715 1.17945 21.6037 1.28454 21.5042L5.57589 17.4536C5.85791 17.1873 6.24043 17.0376 6.63932 17.0376H21.0581C21.856 17.0376 22.6211 16.7384 23.1853 16.2059C23.7495 15.6733 24.0664 14.9511 24.0664 14.198V2.83959C24.0664 2.08649 23.7495 1.36423 23.1853 0.831698C22.6211 0.299171 21.856 0 21.0581 0L3.0083 0Z" fill="#3E3E3E"/>
<path d="M4.53516 4.98968C4.53516 4.80141 4.61439 4.62084 4.75543 4.48771C4.89648 4.35458 5.08777 4.27979 5.28723 4.27979H18.8246C19.0241 4.27979 19.2153 4.35458 19.3564 4.48771C19.4974 4.62084 19.5767 4.80141 19.5767 4.98968C19.5767 5.17796 19.4974 5.35853 19.3564 5.49166C19.2153 5.62479 19.0241 5.69958 18.8246 5.69958H5.28723C5.08777 5.69958 4.89648 5.62479 4.75543 5.49166C4.61439 5.35853 4.53516 5.17796 4.53516 4.98968ZM4.53516 8.53918C4.53516 8.3509 4.61439 8.17034 4.75543 8.0372C4.89648 7.90407 5.08777 7.82928 5.28723 7.82928H18.8246C19.0241 7.82928 19.2153 7.90407 19.3564 8.0372C19.4974 8.17034 19.5767 8.3509 19.5767 8.53918C19.5767 8.72745 19.4974 8.90802 19.3564 9.04115C19.2153 9.17428 19.0241 9.24908 18.8246 9.24908H5.28723C5.08777 9.24908 4.89648 9.17428 4.75543 9.04115C4.61439 8.90802 4.53516 8.72745 4.53516 8.53918ZM4.53516 12.0887C4.53516 11.9004 4.61439 11.7198 4.75543 11.5867C4.89648 11.4536 5.08777 11.3788 5.28723 11.3788H12.808C13.0075 11.3788 13.1987 11.4536 13.3398 11.5867C13.4808 11.7198 13.5601 11.9004 13.5601 12.0887C13.5601 12.2769 13.4808 12.4575 13.3398 12.5906C13.1987 12.7238 13.0075 12.7986 12.808 12.7986H5.28723C5.08777 12.7986 4.89648 12.7238 4.75543 12.5906C4.61439 12.4575 4.53516 12.2769 4.53516 12.0887Z" fill="#3E3E3E"/>
</svg>
