<svg width="23" height="20" viewBox="0 0 23 20" fill="none" xmlns="http://www.w3.org/2000/svg">
<path d="M19.5418 6.88184C18.8303 6.88373 18.1368 7.09433 17.5565 7.48475C16.9761 7.87517 16.5373 8.4263 16.3001 9.06259H1.14952C0.844645 9.06259 0.552261 9.17746 0.336685 9.38195C0.121109 9.58643 0 9.86378 0 10.153C0 10.4421 0.121109 10.7195 0.336685 10.924C0.552261 11.1285 0.844645 11.2433 1.14952 11.2433H16.3001C16.511 11.8091 16.8819 12.309 17.3722 12.6882C17.8625 13.0674 18.4534 13.3113 19.0801 13.3934C19.7068 13.4754 20.3452 13.3923 20.9254 13.1532C21.5057 12.9141 22.0054 12.5282 22.37 12.0378C22.7345 11.5473 22.9498 10.9712 22.9922 10.3725C23.0347 9.77372 22.9027 9.17544 22.6107 8.64309C22.3187 8.11075 21.8779 7.66486 21.3366 7.35421C20.7953 7.04357 20.1744 6.88015 19.5418 6.88184ZM19.5418 11.2433C19.3144 11.2433 19.0922 11.1794 18.9031 11.0596C18.7141 10.9398 18.5668 10.7695 18.4798 10.5702C18.3927 10.371 18.37 10.1518 18.4143 9.94024C18.4587 9.72873 18.5682 9.53444 18.7289 9.38195C18.8897 9.22946 19.0945 9.12561 19.3175 9.08354C19.5405 9.04146 19.7716 9.06306 19.9817 9.14559C20.1917 9.22811 20.3712 9.36787 20.4976 9.54718C20.6239 9.72649 20.6913 9.93731 20.6913 10.153C20.6913 10.4421 20.5702 10.7195 20.3546 10.924C20.139 11.1285 19.8466 11.2433 19.5418 11.2433ZM1.14952 4.70109H2.50594C2.74758 5.33258 3.18833 5.87819 3.7683 6.26377C4.34828 6.64934 5.03934 6.85619 5.74758 6.85619C6.45582 6.85619 7.14688 6.64934 7.72686 6.26377C8.30683 5.87819 8.74758 5.33258 8.98921 4.70109H21.8408C22.1457 4.70109 22.4381 4.58621 22.6536 4.38172C22.8692 4.17724 22.9903 3.8999 22.9903 3.61071C22.9903 3.32153 22.8692 3.04418 22.6536 2.8397C22.4381 2.63521 22.1457 2.52034 21.8408 2.52034H8.98921C8.74758 1.88884 8.30683 1.34323 7.72686 0.957655C7.14688 0.572078 6.45582 0.365234 5.74758 0.365234C5.03934 0.365234 4.34828 0.572078 3.7683 0.957655C3.18833 1.34323 2.74758 1.88884 2.50594 2.52034H1.14952C0.844645 2.52034 0.552261 2.63521 0.336685 2.8397C0.121109 3.04418 0 3.32153 0 3.61071C0 3.8999 0.121109 4.17724 0.336685 4.38172C0.552261 4.58621 0.844645 4.70109 1.14952 4.70109ZM5.74758 2.52034C5.97493 2.52034 6.19718 2.58429 6.38622 2.7041C6.57525 2.82391 6.72259 2.9942 6.80959 3.19344C6.8966 3.39268 6.91936 3.61192 6.87501 3.82343C6.83065 4.03494 6.72117 4.22923 6.56041 4.38172C6.39965 4.53421 6.19482 4.63806 5.97184 4.68013C5.74885 4.72221 5.51772 4.70061 5.30768 4.61809C5.09763 4.53556 4.9181 4.3958 4.79179 4.21649C4.66548 4.03718 4.59806 3.82637 4.59806 3.61071C4.59806 3.32153 4.71917 3.04418 4.93475 2.8397C5.15032 2.63521 5.44271 2.52034 5.74758 2.52034ZM21.8408 15.6048H13.5873C13.3456 14.9733 12.9049 14.4277 12.3249 14.0422C11.7449 13.6566 11.0539 13.4497 10.3456 13.4497C9.6374 13.4497 8.94634 13.6566 8.36637 14.0422C7.78639 14.4277 7.34564 14.9733 7.10401 15.6048H1.14952C0.844645 15.6048 0.552261 15.7197 0.336685 15.9242C0.121109 16.1287 0 16.406 0 16.6952C0 16.9844 0.121109 17.2617 0.336685 17.4662C0.552261 17.6707 0.844645 17.7856 1.14952 17.7856H7.10401C7.34564 18.4171 7.78639 18.9627 8.36637 19.3483C8.94634 19.7338 9.6374 19.9407 10.3456 19.9407C11.0539 19.9407 11.7449 19.7338 12.3249 19.3483C12.9049 18.9627 13.3456 18.4171 13.5873 17.7856H21.8408C22.1457 17.7856 22.4381 17.6707 22.6536 17.4662C22.8692 17.2617 22.9903 16.9844 22.9903 16.6952C22.9903 16.406 22.8692 16.1287 22.6536 15.9242C22.4381 15.7197 22.1457 15.6048 21.8408 15.6048ZM10.3456 17.7856C10.1183 17.7856 9.89604 17.7216 9.707 17.6018C9.51797 17.482 9.37063 17.3117 9.28363 17.1125C9.19662 16.9132 9.17386 16.694 9.21821 16.4825C9.26257 16.271 9.37205 16.0767 9.53281 15.9242C9.69357 15.7717 9.8984 15.6679 10.1214 15.6258C10.3444 15.5837 10.5755 15.6053 10.7855 15.6878C10.9956 15.7704 11.1751 15.9101 11.3014 16.0894C11.4277 16.2687 11.4952 16.4796 11.4952 16.6952C11.4952 16.9844 11.374 17.2617 11.1585 17.4662C10.9429 17.6707 10.6505 17.7856 10.3456 17.7856Z" fill="#3E3E3E"/>
</svg>
