<svg width="21" height="27" viewBox="0 0 21 27" fill="none" xmlns="http://www.w3.org/2000/svg">
<path d="M17.0625 0.419922H1.3125C0.964403 0.419922 0.630564 0.557416 0.384423 0.802156C0.138281 1.0469 0 1.37884 0 1.72495V22.6054C0 22.9516 0.138281 23.2835 0.384423 23.5282C0.630564 23.773 0.964403 23.9105 1.3125 23.9105H2.625V25.2155C2.625 25.5616 2.76328 25.8936 3.00942 26.1383C3.25556 26.383 3.5894 26.5205 3.9375 26.5205C4.2856 26.5205 4.61944 26.383 4.86558 26.1383C5.11172 25.8936 5.25 25.5616 5.25 25.2155V23.9105H17.0625C18.1068 23.9105 19.1083 23.498 19.8467 22.7638C20.5852 22.0295 21 21.0337 21 19.9954V4.33501C21 3.29667 20.5852 2.30085 19.8467 1.56663C19.1083 0.832404 18.1068 0.419922 17.0625 0.419922ZM13.125 21.3004H2.625V3.02998H13.125V21.3004ZM18.375 19.9954C18.375 20.3415 18.2367 20.6734 17.9906 20.9182C17.7444 21.1629 17.4106 21.3004 17.0625 21.3004H15.75V3.02998H17.0625C17.4106 3.02998 17.7444 3.16748 17.9906 3.41222C18.2367 3.65696 18.375 3.9889 18.375 4.33501V19.9954Z" fill="#3E3E3E"/>
</svg>
