<svg width="21" height="21" viewBox="0 0 21 21" fill="none" xmlns="http://www.w3.org/2000/svg">
<path d="M14.5822 10.2089C14.172 9.99971 13.6675 10.1597 13.4542 10.5739C13.245 10.9841 13.4091 11.4886 13.8193 11.7019C16.6616 13.1497 18.4253 16.0495 18.4253 19.261C18.4253 19.7245 18.7985 20.0978 19.262 20.0978C19.7255 20.0978 20.0987 19.7245 20.0987 19.261C20.0987 15.4138 17.9823 11.9439 14.5822 10.2089Z" fill="#3E3E3E"/>
<path d="M5.42637 10.2538C2.07949 12.0093 0 15.4587 0 19.2608C0 19.7243 0.373242 20.0975 0.836719 20.0975C1.3002 20.0975 1.67344 19.7243 1.67344 19.2608C1.67344 16.0862 3.4084 13.2028 6.20156 11.7386C6.61172 11.5253 6.76758 11.0167 6.5543 10.6065C6.34102 10.2005 5.83242 10.0405 5.42637 10.2538V10.2538Z" fill="#3E3E3E"/>
<path d="M10.0483 10.6477C12.9604 10.6477 15.327 8.26055 15.327 5.32383C15.327 2.38711 12.9604 0 10.0483 0C7.13614 0 4.76953 2.38711 4.76953 5.32383C4.76953 8.26055 7.13614 10.6477 10.0483 10.6477ZM10.0483 1.67344C12.0375 1.67344 13.6535 3.30996 13.6535 5.32383C13.6535 7.3377 12.0375 8.97422 10.0483 8.97422C8.05899 8.97422 6.44297 7.3377 6.44297 5.32383C6.44297 3.30996 8.05899 1.67344 10.0483 1.67344Z" fill="#3E3E3E"/>
<path d="M11.8124 11.8619C11.7426 11.4641 11.394 11.1729 10.988 11.1729H9.10944C8.70339 11.1729 8.35475 11.4641 8.28503 11.8619L7.33346 17.1734C7.26784 17.5385 7.45241 17.9076 7.78464 18.0717L9.70827 19.0232C9.99538 19.1586 10.1882 19.175 10.463 19.0191L12.3169 18.0676C12.645 17.8994 12.8255 17.5385 12.7598 17.1734L11.8124 11.8619V11.8619ZM10.0774 17.3334L9.09714 16.8494L9.81491 12.8463H10.2907L11.0085 16.8576L10.0774 17.3334V17.3334Z" fill="#3E3E3E"/>
</svg>
