<svg width="27" height="27" viewBox="0 0 27 27" fill="none" xmlns="http://www.w3.org/2000/svg">
<path d="M24.4201 14.2349V12.7554L26.327 11.1308C26.6786 10.8291 26.9092 10.4162 26.9783 9.96495C27.0474 9.51371 26.9504 9.05323 26.7045 8.66488L24.3605 4.79679C24.1863 4.50307 23.9359 4.25911 23.6343 4.08938C23.3327 3.91965 22.9906 3.83012 22.6422 3.82977C22.4264 3.82816 22.2117 3.86082 22.0066 3.92647L19.5931 4.71943C19.1764 4.44983 18.7418 4.20754 18.292 3.99416L17.7855 1.55726C17.6947 1.11205 17.4459 0.712124 17.0827 0.427492C16.7196 0.14286 16.2652 -0.00834172 15.7991 0.000355314H11.1509C10.6848 -0.00834172 10.2304 0.14286 9.8672 0.427492C9.50405 0.712124 9.25529 1.11205 9.16446 1.55726L8.65793 3.99416C8.20496 4.20749 7.767 4.44977 7.3469 4.71943L4.98307 3.88779C4.77579 3.83521 4.56113 3.81561 4.34742 3.82977C3.99908 3.83012 3.65696 3.91965 3.35537 4.08938C3.05379 4.25911 2.80335 4.50307 2.62918 4.79679L0.285215 8.66488C0.0533883 9.05265 -0.0327576 9.50683 0.0415317 9.94964C0.115821 10.3924 0.345923 10.7963 0.692429 11.0921L2.56959 12.7651V14.2446L0.692429 15.8692C0.336135 16.167 0.0997396 16.5782 0.0251928 17.0296C-0.0493539 17.481 0.0427698 17.9435 0.285215 18.3351L2.62918 22.2032C2.80335 22.4969 3.05379 22.7409 3.35537 22.9106C3.65696 23.0804 3.99908 23.1699 4.34742 23.1702C4.56329 23.1718 4.77799 23.1392 4.98307 23.0735L7.39656 22.2806C7.81325 22.5502 8.24791 22.7925 8.69766 23.0058L9.20419 25.4427C9.29502 25.888 9.54378 26.2879 9.90693 26.5725C10.2701 26.8571 10.7245 27.0083 11.1906 26.9996H15.8785C16.3446 27.0083 16.799 26.8571 17.1622 26.5725C17.5254 26.2879 17.7741 25.888 17.8649 25.4427L18.3715 23.0058C18.8244 22.7925 19.2624 22.5502 19.6825 22.2806L22.0861 23.0735C22.2911 23.1392 22.5058 23.1718 22.7217 23.1702C23.07 23.1699 23.4122 23.0804 23.7138 22.9106C24.0153 22.7409 24.2658 22.4969 24.44 22.2032L26.7045 18.3351C26.9363 17.9473 27.0224 17.4932 26.9481 17.0504C26.8739 16.6076 26.6437 16.2037 26.2972 15.9079L24.4201 14.2349ZM22.6422 21.2362L19.2356 20.1144C18.4381 20.7721 17.5266 21.2862 16.544 21.6327L15.8388 25.1043H11.1509L10.4457 21.6713C9.47079 21.3151 8.56429 20.8019 7.76405 20.1531L4.34742 21.2362L2.00346 17.3681L4.70498 15.0472C4.52133 14.0462 4.52133 13.0215 4.70498 12.0205L2.00346 9.63191L4.34742 5.76381L7.75411 6.88556C8.55159 6.22788 9.46303 5.71377 10.4457 5.36733L11.1509 1.89572H15.8388L16.544 5.32865C17.5189 5.68493 18.4254 6.19815 19.2256 6.84688L22.6422 5.76381L24.9862 9.63191L22.2847 11.9528C22.4683 12.9538 22.4683 13.9785 22.2847 14.9795L24.9862 17.3681L22.6422 21.2362Z" fill="#5CC19E"/>
<path d="M13.4999 18.3459C12.6099 18.3459 11.7399 18.0719 10.9999 17.5584C10.2599 17.0449 9.68312 16.3151 9.34254 15.4612C9.00195 14.6074 8.91284 13.6678 9.08647 12.7613C9.2601 11.8548 9.68867 11.0222 10.318 10.3687C10.9473 9.71515 11.7491 9.2701 12.622 9.08979C13.4949 8.90948 14.3997 9.00202 15.2219 9.35571C16.0442 9.70939 16.7469 10.3083 17.2414 11.0768C17.7359 11.8453 17.9998 12.7487 17.9998 13.673C18.0058 14.2884 17.8935 14.8988 17.6695 15.4686C17.4455 16.0384 17.1143 16.556 16.6952 16.9912C16.2761 17.4263 15.7777 17.7703 15.229 18.0029C14.6803 18.2356 14.0925 18.3522 13.4999 18.3459ZM13.4999 10.5577C13.1034 10.5481 12.7092 10.6221 12.341 10.7753C11.9729 10.9284 11.6385 11.1575 11.3581 11.4487C11.0776 11.74 10.857 12.0872 10.7095 12.4695C10.562 12.8518 10.4907 13.2612 10.5 13.673C10.4907 14.0847 10.562 14.4941 10.7095 14.8764C10.857 15.2587 11.0776 15.606 11.3581 15.8972C11.6385 16.1884 11.9729 16.4175 12.341 16.5707C12.7092 16.7238 13.1034 16.7979 13.4999 16.7883C13.8964 16.7979 14.2906 16.7238 14.6587 16.5707C15.0269 16.4175 15.3613 16.1884 15.6417 15.8972C15.9221 15.606 16.1428 15.2587 16.2903 14.8764C16.4378 14.4941 16.509 14.0847 16.4998 13.673C16.509 13.2612 16.4378 12.8518 16.2903 12.4695C16.1428 12.0872 15.9221 11.74 15.6417 11.4487C15.3613 11.1575 15.0269 10.9284 14.6587 10.7753C14.2906 10.6221 13.8964 10.5481 13.4999 10.5577Z" fill="#5CC19E"/>
</svg>
