<svg width="25" height="20" viewBox="0 0 25 20" fill="none" xmlns="http://www.w3.org/2000/svg">
<path d="M13.0354 0.102876C12.8324 0.0149562 12.6098 -0.0174672 12.3902 0.00891433C12.1706 0.0352959 11.962 0.119537 11.7856 0.253041L5.81155 4.98326H1.2498C0.918329 4.98326 0.600439 5.11511 0.366057 5.34979C0.131674 5.58447 0 5.90276 0 6.23465V13.7429C0 14.0748 0.131674 14.3931 0.366057 14.6278C0.600439 14.8625 0.918329 14.9943 1.2498 14.9943H5.81155L11.7231 19.7245C11.943 19.9012 12.216 19.9982 12.498 19.9998C12.6846 20.0029 12.8692 19.96 13.0354 19.8747C13.248 19.7733 13.4278 19.6137 13.5538 19.4145C13.6799 19.2152 13.7471 18.9843 13.7478 18.7485V1.22912C13.7471 0.993251 13.6799 0.762374 13.5538 0.563107C13.4278 0.363841 13.248 0.204298 13.0354 0.102876ZM11.2482 16.1456L7.02385 12.7669C6.80396 12.5902 6.53089 12.4932 6.24898 12.4916H2.49959V7.48603H6.24898C6.53089 7.48439 6.80396 7.38737 7.02385 7.21072L11.2482 3.83199V16.1456ZM22.0714 2.90597C21.8361 2.67033 21.5169 2.53795 21.184 2.53795C20.8512 2.53795 20.532 2.67033 20.2967 2.90597C20.0613 3.14161 19.9291 3.46121 19.9291 3.79445C19.9291 4.1277 20.0613 4.44729 20.2967 4.68293C21.0326 5.41867 21.6077 6.29963 21.9853 7.26985C22.3629 8.24008 22.5349 9.27834 22.4902 10.3187C22.4456 11.359 22.1853 12.3787 21.7259 13.3129C21.2665 14.2471 20.618 15.0754 19.8218 15.7451C19.6284 15.9107 19.4901 16.1314 19.4253 16.3778C19.3606 16.6242 19.3725 16.8845 19.4594 17.1239C19.5464 17.3633 19.7042 17.5705 19.9119 17.7177C20.1196 17.8649 20.3672 17.9451 20.6216 17.9476C20.9136 17.9482 21.1966 17.8463 21.4215 17.6598C22.485 16.7679 23.3515 15.6642 23.9659 14.4188C24.5803 13.1735 24.9292 11.8138 24.9903 10.4261C25.0514 9.03846 24.8235 7.65326 24.321 6.35859C23.8184 5.06392 23.0523 3.88812 22.0714 2.90597ZM18.5345 6.44738C18.4179 6.3307 18.2796 6.23815 18.1273 6.175C17.9751 6.11186 17.8119 6.07936 17.6471 6.07936C17.4823 6.07936 17.3191 6.11186 17.1669 6.175C17.0146 6.23815 16.8763 6.3307 16.7598 6.44738C16.6432 6.56406 16.5508 6.70257 16.4877 6.85502C16.4247 7.00746 16.3922 7.17086 16.3922 7.33586C16.3922 7.50087 16.4247 7.66426 16.4877 7.8167C16.5508 7.96915 16.6432 8.10767 16.7598 8.22434C17.2292 8.69155 17.4943 9.32609 17.4971 9.98879C17.4974 10.3534 17.4182 10.7136 17.2649 11.0443C17.1116 11.3751 16.888 11.6682 16.6098 11.9034C16.4832 12.0085 16.3786 12.1375 16.3019 12.2831C16.2253 12.4287 16.178 12.588 16.1629 12.7519C16.1478 12.9158 16.1652 13.0811 16.214 13.2382C16.2628 13.3954 16.3421 13.5414 16.4473 13.6679C16.5531 13.7937 16.6826 13.8973 16.8285 13.973C16.9743 14.0486 17.1337 14.0947 17.2973 14.1087C17.461 14.1226 17.6258 14.1041 17.7823 14.0543C17.9388 14.0044 18.084 13.9241 18.2095 13.818C18.7683 13.3489 19.2179 12.763 19.5266 12.1016C19.8353 11.4401 19.9958 10.7189 19.9967 9.98879C19.9897 8.66246 19.4649 7.39149 18.5345 6.44738Z" fill="#5CC19E"/>
</svg>
